<mxfile host="app.diagrams.net" agent="Mozilla/5.0 (Windows NT 10.0; Win64; x64) AppleWebKit/537.36 (KHTML, like Gecko) Chrome/140.0.0.0 Safari/537.36" version="28.2.0">
  <diagram name="Page-1" id="-AM712-PlQCDiP8Xvcuz">
    <mxGraphModel dx="1158" dy="1694" grid="1" gridSize="10" guides="1" tooltips="1" connect="1" arrows="1" fold="1" page="1" pageScale="1" pageWidth="850" pageHeight="1100" math="0" shadow="0">
      <root>
        <mxCell id="0" />
        <mxCell id="1" parent="0" />
        <mxCell id="XxXgYTJorKXfUilTcsGX-2" value="Use Case Booking Hotel Madelin Raenita" style="swimlane;fontStyle=1;align=center;horizontal=1;startSize=30;collapsible=0;html=1;whiteSpace=wrap;" vertex="1" parent="1">
          <mxGeometry x="160" y="-200" width="680" height="1120" as="geometry" />
        </mxCell>
        <mxCell id="XxXgYTJorKXfUilTcsGX-6" value="Register" style="ellipse;whiteSpace=wrap;html=1;" vertex="1" parent="XxXgYTJorKXfUilTcsGX-2">
          <mxGeometry x="275" y="70" width="140" height="70" as="geometry" />
        </mxCell>
        <mxCell id="XxXgYTJorKXfUilTcsGX-7" value="Login" style="ellipse;whiteSpace=wrap;html=1;" vertex="1" parent="XxXgYTJorKXfUilTcsGX-2">
          <mxGeometry x="275" y="230" width="140" height="70" as="geometry" />
        </mxCell>
        <mxCell id="XxXgYTJorKXfUilTcsGX-8" value="Cari Hotel" style="ellipse;whiteSpace=wrap;html=1;" vertex="1" parent="XxXgYTJorKXfUilTcsGX-2">
          <mxGeometry x="175" y="300" width="80" height="40" as="geometry" />
        </mxCell>
        <mxCell id="XxXgYTJorKXfUilTcsGX-9" value="Lihat Detail Hotel" style="ellipse;whiteSpace=wrap;html=1;" vertex="1" parent="XxXgYTJorKXfUilTcsGX-2">
          <mxGeometry x="160" y="350" width="90" height="45" as="geometry" />
        </mxCell>
        <mxCell id="XxXgYTJorKXfUilTcsGX-10" value="Cek Ketersediaan" style="ellipse;whiteSpace=wrap;html=1;" vertex="1" parent="XxXgYTJorKXfUilTcsGX-2">
          <mxGeometry x="140" y="410" width="110" height="55" as="geometry" />
        </mxCell>
        <mxCell id="XxXgYTJorKXfUilTcsGX-11" value="Pesan Kamar" style="ellipse;whiteSpace=wrap;html=1;" vertex="1" parent="XxXgYTJorKXfUilTcsGX-2">
          <mxGeometry x="170" y="490" width="80" height="40" as="geometry" />
        </mxCell>
        <mxCell id="XxXgYTJorKXfUilTcsGX-12" value="Transaksi" style="ellipse;whiteSpace=wrap;html=1;" vertex="1" parent="XxXgYTJorKXfUilTcsGX-2">
          <mxGeometry x="175" y="550" width="70" height="30" as="geometry" />
        </mxCell>
        <mxCell id="XxXgYTJorKXfUilTcsGX-13" value="Kelola Hasil Pemesanan" style="ellipse;whiteSpace=wrap;html=1;" vertex="1" parent="XxXgYTJorKXfUilTcsGX-2">
          <mxGeometry x="165" y="600" width="90" height="45" as="geometry" />
        </mxCell>
        <mxCell id="XxXgYTJorKXfUilTcsGX-19" value="Verify&lt;div&gt;Password&lt;/div&gt;" style="ellipse;whiteSpace=wrap;html=1;" vertex="1" parent="XxXgYTJorKXfUilTcsGX-2">
          <mxGeometry x="360" y="160" width="80" height="40" as="geometry" />
        </mxCell>
        <mxCell id="XxXgYTJorKXfUilTcsGX-20" value="Verify&lt;div&gt;Email&lt;/div&gt;" style="ellipse;whiteSpace=wrap;html=1;" vertex="1" parent="XxXgYTJorKXfUilTcsGX-2">
          <mxGeometry x="240" y="170" width="86.67" height="40" as="geometry" />
        </mxCell>
        <mxCell id="XxXgYTJorKXfUilTcsGX-22" value="&amp;lt;&amp;lt;include&amp;gt;&amp;gt;" style="edgeStyle=none;html=1;endArrow=open;verticalAlign=bottom;dashed=1;labelBackgroundColor=none;rounded=0;exitX=0;exitY=0;exitDx=0;exitDy=0;entryX=0.398;entryY=0.941;entryDx=0;entryDy=0;entryPerimeter=0;" edge="1" parent="XxXgYTJorKXfUilTcsGX-2" source="XxXgYTJorKXfUilTcsGX-7" target="XxXgYTJorKXfUilTcsGX-20">
          <mxGeometry x="0.7285" y="33" width="160" relative="1" as="geometry">
            <mxPoint x="255" y="189.99999999999997" as="sourcePoint" />
            <mxPoint x="415" y="189.99999999999997" as="targetPoint" />
            <mxPoint as="offset" />
          </mxGeometry>
        </mxCell>
        <mxCell id="XxXgYTJorKXfUilTcsGX-23" value="&amp;lt;&amp;lt;include&amp;gt;&amp;gt;" style="edgeStyle=none;html=1;endArrow=open;verticalAlign=bottom;dashed=1;labelBackgroundColor=none;rounded=0;exitX=0.921;exitY=0.25;exitDx=0;exitDy=0;exitPerimeter=0;" edge="1" parent="XxXgYTJorKXfUilTcsGX-2" source="XxXgYTJorKXfUilTcsGX-7" target="XxXgYTJorKXfUilTcsGX-19">
          <mxGeometry x="0.2862" y="52" width="160" relative="1" as="geometry">
            <mxPoint x="490" y="210" as="sourcePoint" />
            <mxPoint x="650" y="210" as="targetPoint" />
            <mxPoint as="offset" />
          </mxGeometry>
        </mxCell>
        <mxCell id="XxXgYTJorKXfUilTcsGX-24" value="Display Login Error" style="ellipse;whiteSpace=wrap;html=1;" vertex="1" parent="XxXgYTJorKXfUilTcsGX-2">
          <mxGeometry x="310" y="360" width="100" height="50" as="geometry" />
        </mxCell>
        <mxCell id="XxXgYTJorKXfUilTcsGX-25" value="&amp;lt;&amp;lt;extend&amp;gt;&amp;gt;" style="edgeStyle=none;html=1;startArrow=open;endArrow=none;startSize=12;verticalAlign=bottom;dashed=1;labelBackgroundColor=none;rounded=0;entryX=0.5;entryY=0;entryDx=0;entryDy=0;exitX=0.55;exitY=0.988;exitDx=0;exitDy=0;exitPerimeter=0;" edge="1" parent="XxXgYTJorKXfUilTcsGX-2" source="XxXgYTJorKXfUilTcsGX-7" target="XxXgYTJorKXfUilTcsGX-24">
          <mxGeometry x="0.1837" y="-37" width="160" relative="1" as="geometry">
            <mxPoint x="260" y="210" as="sourcePoint" />
            <mxPoint x="420" y="210" as="targetPoint" />
            <mxPoint as="offset" />
          </mxGeometry>
        </mxCell>
        <mxCell id="XxXgYTJorKXfUilTcsGX-38" value="CRUD Hotel" style="ellipse;whiteSpace=wrap;html=1;" vertex="1" parent="XxXgYTJorKXfUilTcsGX-2">
          <mxGeometry x="470" y="290" width="80" height="40" as="geometry" />
        </mxCell>
        <mxCell id="XxXgYTJorKXfUilTcsGX-39" value="Kelola Kamar &amp;amp; Tarif" style="ellipse;whiteSpace=wrap;html=1;" vertex="1" parent="XxXgYTJorKXfUilTcsGX-2">
          <mxGeometry x="460" y="350" width="100" height="50" as="geometry" />
        </mxCell>
        <mxCell id="XxXgYTJorKXfUilTcsGX-40" value="Kelola Stok Kamar" style="ellipse;whiteSpace=wrap;html=1;" vertex="1" parent="XxXgYTJorKXfUilTcsGX-2">
          <mxGeometry x="455" y="435" width="90" height="45" as="geometry" />
        </mxCell>
        <mxCell id="XxXgYTJorKXfUilTcsGX-41" value="Kelola Pengguna" style="ellipse;whiteSpace=wrap;html=1;" vertex="1" parent="XxXgYTJorKXfUilTcsGX-2">
          <mxGeometry x="450" y="500" width="90" height="45" as="geometry" />
        </mxCell>
        <mxCell id="XxXgYTJorKXfUilTcsGX-42" value="Dashboard Analisis" style="ellipse;whiteSpace=wrap;html=1;" vertex="1" parent="XxXgYTJorKXfUilTcsGX-2">
          <mxGeometry x="440" y="550" width="100" height="50" as="geometry" />
        </mxCell>
        <mxCell id="XxXgYTJorKXfUilTcsGX-43" value="Pengaturan (Pajak)" style="ellipse;whiteSpace=wrap;html=1;" vertex="1" parent="XxXgYTJorKXfUilTcsGX-2">
          <mxGeometry x="450" y="610" width="100" height="50" as="geometry" />
        </mxCell>
        <mxCell id="XxXgYTJorKXfUilTcsGX-50" value="Log Out" style="ellipse;whiteSpace=wrap;html=1;" vertex="1" parent="XxXgYTJorKXfUilTcsGX-2">
          <mxGeometry x="285.83" y="760" width="148.34" height="68.46" as="geometry" />
        </mxCell>
        <mxCell id="XxXgYTJorKXfUilTcsGX-17" style="rounded=0;orthogonalLoop=1;jettySize=auto;html=1;exitX=1;exitY=0.3333333333333333;exitDx=0;exitDy=0;exitPerimeter=0;entryX=0;entryY=0.5;entryDx=0;entryDy=0;endArrow=none;endFill=0;" edge="1" parent="1" source="XxXgYTJorKXfUilTcsGX-5" target="XxXgYTJorKXfUilTcsGX-6">
          <mxGeometry relative="1" as="geometry" />
        </mxCell>
        <mxCell id="XxXgYTJorKXfUilTcsGX-18" style="rounded=0;orthogonalLoop=1;jettySize=auto;html=1;exitX=1;exitY=0.3333333333333333;exitDx=0;exitDy=0;exitPerimeter=0;entryX=0;entryY=0.5;entryDx=0;entryDy=0;endArrow=none;endFill=0;" edge="1" parent="1" source="XxXgYTJorKXfUilTcsGX-5" target="XxXgYTJorKXfUilTcsGX-7">
          <mxGeometry relative="1" as="geometry" />
        </mxCell>
        <mxCell id="XxXgYTJorKXfUilTcsGX-30" style="rounded=0;orthogonalLoop=1;jettySize=auto;html=1;exitX=1;exitY=0.3333333333333333;exitDx=0;exitDy=0;exitPerimeter=0;entryX=0;entryY=0;entryDx=0;entryDy=0;endArrow=none;endFill=0;" edge="1" parent="1" source="XxXgYTJorKXfUilTcsGX-5" target="XxXgYTJorKXfUilTcsGX-8">
          <mxGeometry relative="1" as="geometry" />
        </mxCell>
        <mxCell id="XxXgYTJorKXfUilTcsGX-31" style="rounded=0;orthogonalLoop=1;jettySize=auto;html=1;exitX=1;exitY=0.3333333333333333;exitDx=0;exitDy=0;exitPerimeter=0;endArrow=none;endFill=0;" edge="1" parent="1" source="XxXgYTJorKXfUilTcsGX-5" target="XxXgYTJorKXfUilTcsGX-9">
          <mxGeometry relative="1" as="geometry" />
        </mxCell>
        <mxCell id="XxXgYTJorKXfUilTcsGX-32" style="rounded=0;orthogonalLoop=1;jettySize=auto;html=1;exitX=1;exitY=0.3333333333333333;exitDx=0;exitDy=0;exitPerimeter=0;entryX=0;entryY=0;entryDx=0;entryDy=0;endArrow=none;endFill=0;" edge="1" parent="1" source="XxXgYTJorKXfUilTcsGX-5" target="XxXgYTJorKXfUilTcsGX-10">
          <mxGeometry relative="1" as="geometry" />
        </mxCell>
        <mxCell id="XxXgYTJorKXfUilTcsGX-33" style="rounded=0;orthogonalLoop=1;jettySize=auto;html=1;exitX=1;exitY=0.3333333333333333;exitDx=0;exitDy=0;exitPerimeter=0;entryX=0;entryY=0.5;entryDx=0;entryDy=0;endArrow=none;endFill=0;" edge="1" parent="1" source="XxXgYTJorKXfUilTcsGX-5" target="XxXgYTJorKXfUilTcsGX-11">
          <mxGeometry relative="1" as="geometry" />
        </mxCell>
        <mxCell id="XxXgYTJorKXfUilTcsGX-34" style="rounded=0;orthogonalLoop=1;jettySize=auto;html=1;exitX=1;exitY=0.3333333333333333;exitDx=0;exitDy=0;exitPerimeter=0;entryX=0;entryY=0.5;entryDx=0;entryDy=0;endArrow=none;endFill=0;" edge="1" parent="1" source="XxXgYTJorKXfUilTcsGX-5" target="XxXgYTJorKXfUilTcsGX-12">
          <mxGeometry relative="1" as="geometry" />
        </mxCell>
        <mxCell id="XxXgYTJorKXfUilTcsGX-35" style="rounded=0;orthogonalLoop=1;jettySize=auto;html=1;exitX=1;exitY=0.3333333333333333;exitDx=0;exitDy=0;exitPerimeter=0;entryX=0;entryY=0;entryDx=0;entryDy=0;endArrow=none;endFill=0;" edge="1" parent="1" source="XxXgYTJorKXfUilTcsGX-5" target="XxXgYTJorKXfUilTcsGX-13">
          <mxGeometry relative="1" as="geometry" />
        </mxCell>
        <mxCell id="XxXgYTJorKXfUilTcsGX-51" style="rounded=0;orthogonalLoop=1;jettySize=auto;html=1;exitX=1;exitY=0.3333333333333333;exitDx=0;exitDy=0;exitPerimeter=0;entryX=0;entryY=0.5;entryDx=0;entryDy=0;endArrow=none;endFill=0;" edge="1" parent="1" source="XxXgYTJorKXfUilTcsGX-5" target="XxXgYTJorKXfUilTcsGX-50">
          <mxGeometry relative="1" as="geometry" />
        </mxCell>
        <mxCell id="XxXgYTJorKXfUilTcsGX-5" value="Penyewa" style="shape=umlActor;html=1;verticalLabelPosition=bottom;verticalAlign=top;align=center;" vertex="1" parent="1">
          <mxGeometry x="30" y="95" width="50" height="100" as="geometry" />
        </mxCell>
        <mxCell id="XxXgYTJorKXfUilTcsGX-36" style="rounded=0;orthogonalLoop=1;jettySize=auto;html=1;exitX=0;exitY=0.3333333333333333;exitDx=0;exitDy=0;exitPerimeter=0;entryX=1;entryY=0.5;entryDx=0;entryDy=0;endArrow=none;endFill=0;" edge="1" parent="1" source="XxXgYTJorKXfUilTcsGX-14" target="XxXgYTJorKXfUilTcsGX-7">
          <mxGeometry relative="1" as="geometry" />
        </mxCell>
        <mxCell id="XxXgYTJorKXfUilTcsGX-44" style="rounded=0;orthogonalLoop=1;jettySize=auto;html=1;exitX=0;exitY=0.3333333333333333;exitDx=0;exitDy=0;exitPerimeter=0;entryX=1;entryY=0.5;entryDx=0;entryDy=0;endArrow=none;endFill=0;" edge="1" parent="1" source="XxXgYTJorKXfUilTcsGX-14" target="XxXgYTJorKXfUilTcsGX-38">
          <mxGeometry relative="1" as="geometry" />
        </mxCell>
        <mxCell id="XxXgYTJorKXfUilTcsGX-45" style="rounded=0;orthogonalLoop=1;jettySize=auto;html=1;exitX=0;exitY=0.3333333333333333;exitDx=0;exitDy=0;exitPerimeter=0;entryX=1;entryY=0.5;entryDx=0;entryDy=0;endArrow=none;endFill=0;" edge="1" parent="1" source="XxXgYTJorKXfUilTcsGX-14" target="XxXgYTJorKXfUilTcsGX-39">
          <mxGeometry relative="1" as="geometry" />
        </mxCell>
        <mxCell id="XxXgYTJorKXfUilTcsGX-46" style="rounded=0;orthogonalLoop=1;jettySize=auto;html=1;exitX=0;exitY=0.3333333333333333;exitDx=0;exitDy=0;exitPerimeter=0;entryX=1;entryY=0.5;entryDx=0;entryDy=0;endArrow=none;endFill=0;" edge="1" parent="1" source="XxXgYTJorKXfUilTcsGX-14" target="XxXgYTJorKXfUilTcsGX-40">
          <mxGeometry relative="1" as="geometry" />
        </mxCell>
        <mxCell id="XxXgYTJorKXfUilTcsGX-47" style="rounded=0;orthogonalLoop=1;jettySize=auto;html=1;exitX=0;exitY=0.3333333333333333;exitDx=0;exitDy=0;exitPerimeter=0;entryX=1;entryY=0.5;entryDx=0;entryDy=0;endArrow=none;endFill=0;" edge="1" parent="1" source="XxXgYTJorKXfUilTcsGX-14" target="XxXgYTJorKXfUilTcsGX-41">
          <mxGeometry relative="1" as="geometry" />
        </mxCell>
        <mxCell id="XxXgYTJorKXfUilTcsGX-48" style="rounded=0;orthogonalLoop=1;jettySize=auto;html=1;exitX=0;exitY=0.3333333333333333;exitDx=0;exitDy=0;exitPerimeter=0;entryX=1;entryY=0.5;entryDx=0;entryDy=0;endArrow=none;endFill=0;" edge="1" parent="1" source="XxXgYTJorKXfUilTcsGX-14" target="XxXgYTJorKXfUilTcsGX-42">
          <mxGeometry relative="1" as="geometry" />
        </mxCell>
        <mxCell id="XxXgYTJorKXfUilTcsGX-49" style="rounded=0;orthogonalLoop=1;jettySize=auto;html=1;exitX=0;exitY=0.3333333333333333;exitDx=0;exitDy=0;exitPerimeter=0;entryX=1;entryY=0.5;entryDx=0;entryDy=0;endArrow=none;endFill=0;" edge="1" parent="1" source="XxXgYTJorKXfUilTcsGX-14" target="XxXgYTJorKXfUilTcsGX-43">
          <mxGeometry relative="1" as="geometry" />
        </mxCell>
        <mxCell id="XxXgYTJorKXfUilTcsGX-52" style="rounded=0;orthogonalLoop=1;jettySize=auto;html=1;exitX=0;exitY=0.3333333333333333;exitDx=0;exitDy=0;exitPerimeter=0;entryX=1;entryY=0.5;entryDx=0;entryDy=0;endArrow=none;endFill=0;" edge="1" parent="1" source="XxXgYTJorKXfUilTcsGX-14" target="XxXgYTJorKXfUilTcsGX-50">
          <mxGeometry relative="1" as="geometry" />
        </mxCell>
        <mxCell id="XxXgYTJorKXfUilTcsGX-14" value="Admin" style="shape=umlActor;html=1;verticalLabelPosition=bottom;verticalAlign=top;align=center;" vertex="1" parent="1">
          <mxGeometry x="1020" y="40" width="60" height="120" as="geometry" />
        </mxCell>
      </root>
    </mxGraphModel>
  </diagram>
</mxfile>
